<svg width="500" height="350" viewBox="0 0 500 350" xmlns="http://www.w3.org/2000/svg">
  <!-- Background -->
  <rect width="500" height="350" fill="#f8fafc" rx="8" ry="8"/>
  
  <!-- Desk -->
  <rect x="50" y="220" width="400" height="20" fill="#94a3b8" rx="2" ry="2"/>
  <rect x="70" y="240" width="15" height="80" fill="#64748b"/>
  <rect x="415" y="240" width="15" height="80" fill="#64748b"/>
  
  <!-- Advisor figure -->
  <circle cx="200" cy="150" r="50" fill="#1e40af"/>
  <circle cx="200" cy="90" r="30" fill="#bfdbfe"/>
  <rect x="170" y="150" width="60" height="80" fill="#1e40af" rx="5" ry="5"/>
  
  <!-- Client figure -->
  <circle cx="300" cy="150" r="50" fill="#bfdbfe"/>
  <circle cx="300" cy="90" r="30" fill="#bfdbfe"/>
  <rect x="270" y="150" width="60" height="80" fill="#bfdbfe" rx="5" ry="5"/>
  
  <!-- Papers/documents -->
  <rect x="230" y="190" width="40" height="50" fill="white" transform="rotate(-10,250,215)"/>
  <rect x="235" y="200" width="30" height="5" fill="#94a3b8" transform="rotate(-10,250,215)"/>
  <rect x="235" y="210" width="30" height="5" fill="#94a3b8" transform="rotate(-10,250,215)"/>
  <rect x="235" y="220" width="30" height="5" fill="#94a3b8" transform="rotate(-10,250,215)"/>
  
  <!-- Calculator -->
  <rect x="150" y="200" width="30" height="40" fill="#334155" rx="2" ry="2"/>
  <rect x="155" y="205" width="20" height="10" fill="#e2e8f0"/>
  <circle cx="160" cy="225" r="3" fill="#e2e8f0"/>
  <circle cx="170" cy="225" r="3" fill="#e2e8f0"/>
  <circle cx="160" cy="235" r="3" fill="#e2e8f0"/>
  <circle cx="170" cy="235" r="3" fill="#e2e8f0"/>
  
  <!-- Coins/money -->
  <circle cx="355" cy="210" r="10" fill="#fcd34d"/>
  <circle cx="370" cy="215" r="10" fill="#fcd34d"/>
  <circle cx="345" cy="220" r="10" fill="#fcd34d"/>
</svg>