<svg width="800" height="200" viewBox="0 0 800 200" xmlns="http://www.w3.org/2000/svg">
  <!-- Background -->
  <rect width="800" height="200" fill="#f8fafc" rx="8" ry="8"/>
  
  <!-- Step 1 -->
  <circle cx="100" cy="60" r="30" fill="#1e40af"/>
  <text x="100" y="70" font-family="Arial, sans-serif" font-size="24" fill="white" text-anchor="middle">1</text>
  <rect x="70" y="110" width="60" height="5" fill="#1e40af"/>
  <text x="100" y="140" font-family="Arial, sans-serif" font-size="14" fill="#334155" text-anchor="middle">Initial</text>
  <text x="100" y="160" font-family="Arial, sans-serif" font-size="14" fill="#334155" text-anchor="middle">Assessment</text>
  
  <!-- Arrow 1 -->
  <path d="M140 60 L220 60" stroke="#94a3b8" stroke-width="2" stroke-dasharray="5,5"/>
  <polygon points="220,60 210,55 210,65" fill="#94a3b8"/>
  
  <!-- Step 2 -->
  <circle cx="250" cy="60" r="30" fill="#1e40af"/>
  <text x="250" y="70" font-family="Arial, sans-serif" font-size="24" fill="white" text-anchor="middle">2</text>
  <rect x="220" y="110" width="60" height="5" fill="#1e40af"/>
  <text x="250" y="140" font-family="Arial, sans-serif" font-size="14" fill="#334155" text-anchor="middle">Budget</text>
  <text x="250" y="160" font-family="Arial, sans-serif" font-size="14" fill="#334155" text-anchor="middle">Review</text>
  
  <!-- Arrow 2 -->
  <path d="M290 60 L370 60" stroke="#94a3b8" stroke-width="2" stroke-dasharray="5,5"/>
  <polygon points="370,60 360,55 360,65" fill="#94a3b8"/>
  
  <!-- Step 3 -->
  <circle cx="400" cy="60" r="30" fill="#1e40af"/>
  <text x="400" y="70" font-family="Arial, sans-serif" font-size="24" fill="white" text-anchor="middle">3</text>
  <rect x="370" y="110" width="60" height="5" fill="#1e40af"/>
  <text x="400" y="140" font-family="Arial, sans-serif" font-size="14" fill="#334155" text-anchor="middle">Explore</text>
  <text x="400" y="160" font-family="Arial, sans-serif" font-size="14" fill="#334155" text-anchor="middle">Options</text>
  
  <!-- Arrow 3 -->
  <path d="M440 60 L520 60" stroke="#94a3b8" stroke-width="2" stroke-dasharray="5,5"/>
  <polygon points="520,60 510,55 510,65" fill="#94a3b8"/>
  
  <!-- Step 4 -->
  <circle cx="550" cy="60" r="30" fill="#1e40af"/>
  <text x="550" y="70" font-family="Arial, sans-serif" font-size="24" fill="white" text-anchor="middle">4</text>
  <rect x="520" y="110" width="60" height="5" fill="#1e40af"/>
  <text x="550" y="140" font-family="Arial, sans-serif" font-size="14" fill="#334155" text-anchor="middle">Action</text>
  <text x="550" y="160" font-family="Arial, sans-serif" font-size="14" fill="#334155" text-anchor="middle">Plan</text>
  
  <!-- Arrow 4 -->
  <path d="M590 60 L670 60" stroke="#94a3b8" stroke-width="2" stroke-dasharray="5,5"/>
  <polygon points="670,60 660,55 660,65" fill="#94a3b8"/>
  
  <!-- Step 5 -->
  <circle cx="700" cy="60" r="30" fill="#1e40af"/>
  <text x="700" y="70" font-family="Arial, sans-serif" font-size="24" fill="white" text-anchor="middle">5</text>
  <rect x="670" y="110" width="60" height="5" fill="#1e40af"/>
  <text x="700" y="140" font-family="Arial, sans-serif" font-size="14" fill="#334155" text-anchor="middle">Ongoing</text>
  <text x="700" y="160" font-family="Arial, sans-serif" font-size="14" fill="#334155" text-anchor="middle">Support</text>
</svg>